<svg xmlns="http://www.w3.org/2000/svg" viewBox="0 0 44 44" width="44" height="44" role="img" aria-label="Webinti">
  <defs>
    <radialGradient id="d-glow" cx="50%" cy="50%" r="50%">
      <stop offset="55%" stop-color="#C8403F" stop-opacity="0.5"/>
      <stop offset="100%" stop-color="#C8403F" stop-opacity="0"/>
    </radialGradient>
    <clipPath id="d-disc"><circle cx="22" cy="22" r="16"/></clipPath>
  </defs>
  <circle cx="22" cy="22" r="22" fill="url(#d-glow)"/>
  <g clip-path="url(#d-disc)"><path d="M22 22 L13.750 36.289 A16.5 16.5 0 0 1 13.183 35.947 Z" fill="rgb(200,64,63)"/><path d="M22 22 L13.256 35.993 A16.5 16.5 0 0 1 12.702 35.631 Z" fill="rgb(201,66,65)"/><path d="M22 22 L12.773 35.679 A16.5 16.5 0 0 1 12.232 35.298 Z" fill="rgb(202,68,66)"/><path d="M22 22 L12.302 35.349 A16.5 16.5 0 0 1 11.774 34.949 Z" fill="rgb(203,70,68)"/><path d="M22 22 L11.842 35.002 A16.5 16.5 0 0 1 11.328 34.584 Z" fill="rgb(204,72,69)"/><path d="M22 22 L11.394 34.640 A16.5 16.5 0 0 1 10.895 34.204 Z" fill="rgb(205,73,71)"/><path d="M22 22 L10.959 34.262 A16.5 16.5 0 0 1 10.476 33.809 Z" fill="rgb(206,75,72)"/><path d="M22 22 L10.538 33.869 A16.5 16.5 0 0 1 10.071 33.400 Z" fill="rgb(206,77,74)"/><path d="M22 22 L10.131 33.462 A16.5 16.5 0 0 1 9.680 32.976 Z" fill="rgb(207,79,75)"/><path d="M22 22 L9.738 33.041 A16.5 16.5 0 0 1 9.305 32.540 Z" fill="rgb(208,81,77)"/><path d="M22 22 L9.360 32.606 A16.5 16.5 0 0 1 8.945 32.090 Z" fill="rgb(209,83,78)"/><path d="M22 22 L8.998 32.158 A16.5 16.5 0 0 1 8.601 31.628 Z" fill="rgb(210,85,80)"/><path d="M22 22 L8.651 31.698 A16.5 16.5 0 0 1 8.273 31.155 Z" fill="rgb(211,87,81)"/><path d="M22 22 L8.321 31.227 A16.5 16.5 0 0 1 7.962 30.670 Z" fill="rgb(212,88,83)"/><path d="M22 22 L8.007 30.744 A16.5 16.5 0 0 1 7.668 30.175 Z" fill="rgb(213,90,84)"/><path d="M22 22 L7.711 30.250 A16.5 16.5 0 0 1 7.391 29.670 Z" fill="rgb(214,92,86)"/><path d="M22 22 L7.431 29.746 A16.5 16.5 0 0 1 7.132 29.155 Z" fill="rgb(215,94,87)"/><path d="M22 22 L7.170 29.233 A16.5 16.5 0 0 1 6.892 28.632 Z" fill="rgb(216,96,89)"/><path d="M22 22 L6.926 28.711 A16.5 16.5 0 0 1 6.669 28.101 Z" fill="rgb(217,98,90)"/><path d="M22 22 L6.701 28.181 A16.5 16.5 0 0 1 6.466 27.562 Z" fill="rgb(217,100,92)"/><path d="M22 22 L6.495 27.643 A16.5 16.5 0 0 1 6.281 27.017 Z" fill="rgb(218,102,93)"/><path d="M22 22 L6.308 27.099 A16.5 16.5 0 0 1 6.116 26.465 Z" fill="rgb(219,104,95)"/><path d="M22 22 L6.139 26.548 A16.5 16.5 0 0 1 5.969 25.908 Z" fill="rgb(220,105,96)"/><path d="M22 22 L5.990 25.992 A16.5 16.5 0 0 1 5.843 25.346 Z" fill="rgb(221,107,98)"/><path d="M22 22 L5.861 25.431 A16.5 16.5 0 0 1 5.736 24.780 Z" fill="rgb(222,109,99)"/><path d="M22 22 L5.751 24.865 A16.5 16.5 0 0 1 5.649 24.211 Z" fill="rgb(223,111,101)"/><path d="M22 22 L5.661 24.296 A16.5 16.5 0 0 1 5.582 23.639 Z" fill="rgb(224,113,102)"/><path d="M22 22 L5.590 23.725 A16.5 16.5 0 0 1 5.534 23.065 Z" fill="rgb(225,115,104)"/><path d="M22 22 L5.540 23.151 A16.5 16.5 0 0 1 5.507 22.489 Z" fill="rgb(226,117,105)"/><path d="M22 22 L5.510 22.576 A16.5 16.5 0 0 1 5.500 21.914 Z" fill="rgb(227,119,107)"/><path d="M22 22 L5.500 22.000 A16.5 16.5 0 0 1 5.513 21.338 Z" fill="rgb(228,121,108)"/><path d="M22 22 L5.510 21.424 A16.5 16.5 0 0 1 5.546 20.763 Z" fill="rgb(228,122,110)"/><path d="M22 22 L5.540 20.849 A16.5 16.5 0 0 1 5.600 20.189 Z" fill="rgb(229,124,111)"/><path d="M22 22 L5.590 20.275 A16.5 16.5 0 0 1 5.673 19.618 Z" fill="rgb(230,126,113)"/><path d="M22 22 L5.661 19.704 A16.5 16.5 0 0 1 5.766 19.050 Z" fill="rgb(231,128,114)"/><path d="M22 22 L5.751 19.135 A16.5 16.5 0 0 1 5.879 18.485 Z" fill="rgb(232,130,116)"/><path d="M22 22 L5.861 18.569 A16.5 16.5 0 0 1 6.011 17.925 Z" fill="rgb(233,132,117)"/><path d="M22 22 L5.990 18.008 A16.5 16.5 0 0 1 6.163 17.369 Z" fill="rgb(234,134,119)"/><path d="M22 22 L6.139 17.452 A16.5 16.5 0 0 1 6.334 16.819 Z" fill="rgb(235,136,120)"/><path d="M22 22 L6.308 16.901 A16.5 16.5 0 0 1 6.525 16.276 Z" fill="rgb(236,137,122)"/><path d="M22 22 L6.495 16.357 A16.5 16.5 0 0 1 6.734 15.739 Z" fill="rgb(237,139,123)"/><path d="M22 22 L6.701 15.819 A16.5 16.5 0 0 1 6.962 15.210 Z" fill="rgb(238,141,125)"/><path d="M22 22 L6.926 15.289 A16.5 16.5 0 0 1 7.208 14.689 Z" fill="rgb(239,143,126)"/><path d="M22 22 L7.170 14.767 A16.5 16.5 0 0 1 7.472 14.178 Z" fill="rgb(239,145,128)"/><path d="M22 22 L7.431 14.254 A16.5 16.5 0 0 1 7.754 13.675 Z" fill="rgb(240,147,129)"/><path d="M22 22 L7.711 13.750 A16.5 16.5 0 0 1 8.053 13.183 Z" fill="rgb(241,149,131)"/><path d="M22 22 L8.007 13.256 A16.5 16.5 0 0 1 8.369 12.702 Z" fill="rgb(242,151,132)"/><path d="M22 22 L8.321 12.773 A16.5 16.5 0 0 1 8.702 12.232 Z" fill="rgb(243,153,134)"/><path d="M22 22 L8.651 12.302 A16.5 16.5 0 0 1 9.051 11.774 Z" fill="rgb(244,154,135)"/><path d="M22 22 L8.998 11.842 A16.5 16.5 0 0 1 9.416 11.328 Z" fill="rgb(245,156,137)"/><path d="M22 22 L9.360 11.394 A16.5 16.5 0 0 1 9.796 10.895 Z" fill="rgb(246,158,138)"/><path d="M22 22 L9.738 10.959 A16.5 16.5 0 0 1 10.191 10.476 Z" fill="rgb(247,160,140)"/><path d="M22 22 L10.131 10.538 A16.5 16.5 0 0 1 10.600 10.071 Z" fill="rgb(248,162,141)"/><path d="M22 22 L10.538 10.131 A16.5 16.5 0 0 1 11.024 9.680 Z" fill="rgb(249,164,143)"/><path d="M22 22 L10.959 9.738 A16.5 16.5 0 0 1 11.460 9.305 Z" fill="rgb(250,166,144)"/><path d="M22 22 L11.394 9.360 A16.5 16.5 0 0 1 11.910 8.945 Z" fill="rgb(250,168,146)"/><path d="M22 22 L11.842 8.998 A16.5 16.5 0 0 1 12.372 8.601 Z" fill="rgb(251,169,147)"/><path d="M22 22 L12.302 8.651 A16.5 16.5 0 0 1 12.845 8.273 Z" fill="rgb(252,171,149)"/><path d="M22 22 L12.773 8.321 A16.5 16.5 0 0 1 13.330 7.962 Z" fill="rgb(253,173,150)"/><path d="M22 22 L13.256 8.007 A16.5 16.5 0 0 1 13.825 7.668 Z" fill="rgb(254,175,152)"/><path d="M22 22 L13.750 7.711 A16.5 16.5 0 0 1 14.330 7.391 Z" fill="rgb(255,177,153)"/><path d="M22 22 L14.254 7.431 A16.5 16.5 0 0 1 14.845 7.132 Z" fill="rgb(255,176,152)"/><path d="M22 22 L14.767 7.170 A16.5 16.5 0 0 1 15.368 6.892 Z" fill="rgb(254,175,152)"/><path d="M22 22 L15.289 6.926 A16.5 16.5 0 0 1 15.899 6.669 Z" fill="rgb(254,174,151)"/><path d="M22 22 L15.819 6.701 A16.5 16.5 0 0 1 16.438 6.466 Z" fill="rgb(253,173,150)"/><path d="M22 22 L16.357 6.495 A16.5 16.5 0 0 1 16.983 6.281 Z" fill="rgb(253,172,150)"/><path d="M22 22 L16.901 6.308 A16.5 16.5 0 0 1 17.535 6.116 Z" fill="rgb(253,171,149)"/><path d="M22 22 L17.452 6.139 A16.5 16.5 0 0 1 18.092 5.969 Z" fill="rgb(252,170,148)"/><path d="M22 22 L18.008 5.990 A16.5 16.5 0 0 1 18.654 5.843 Z" fill="rgb(252,169,148)"/><path d="M22 22 L18.569 5.861 A16.5 16.5 0 0 1 19.220 5.736 Z" fill="rgb(252,168,147)"/><path d="M22 22 L19.135 5.751 A16.5 16.5 0 0 1 19.789 5.649 Z" fill="rgb(251,167,147)"/><path d="M22 22 L19.704 5.661 A16.5 16.5 0 0 1 20.361 5.582 Z" fill="rgb(251,166,146)"/><path d="M22 22 L20.275 5.590 A16.5 16.5 0 0 1 20.935 5.534 Z" fill="rgb(250,165,145)"/><path d="M22 22 L20.849 5.540 A16.5 16.5 0 0 1 21.511 5.507 Z" fill="rgb(250,164,145)"/><path d="M22 22 L21.424 5.510 A16.5 16.5 0 0 1 22.086 5.500 Z" fill="rgb(250,163,144)"/><path d="M22 22 L22.000 5.500 A16.5 16.5 0 0 1 22.662 5.513 Z" fill="rgb(249,162,143)"/><path d="M22 22 L22.576 5.510 A16.5 16.5 0 0 1 23.237 5.546 Z" fill="rgb(249,161,143)"/><path d="M22 22 L23.151 5.540 A16.5 16.5 0 0 1 23.811 5.600 Z" fill="rgb(248,160,142)"/><path d="M22 22 L23.725 5.590 A16.5 16.5 0 0 1 24.382 5.673 Z" fill="rgb(248,159,141)"/><path d="M22 22 L24.296 5.661 A16.5 16.5 0 0 1 24.950 5.766 Z" fill="rgb(248,158,141)"/><path d="M22 22 L24.865 5.751 A16.5 16.5 0 0 1 25.515 5.879 Z" fill="rgb(247,157,140)"/><path d="M22 22 L25.431 5.861 A16.5 16.5 0 0 1 26.075 6.011 Z" fill="rgb(247,156,139)"/><path d="M22 22 L25.992 5.990 A16.5 16.5 0 0 1 26.631 6.163 Z" fill="rgb(247,155,139)"/><path d="M22 22 L26.548 6.139 A16.5 16.5 0 0 1 27.181 6.334 Z" fill="rgb(246,154,138)"/><path d="M22 22 L27.099 6.308 A16.5 16.5 0 0 1 27.724 6.525 Z" fill="rgb(246,153,137)"/><path d="M22 22 L27.643 6.495 A16.5 16.5 0 0 1 28.261 6.734 Z" fill="rgb(245,152,137)"/><path d="M22 22 L28.181 6.701 A16.5 16.5 0 0 1 28.790 6.962 Z" fill="rgb(245,151,136)"/><path d="M22 22 L28.711 6.926 A16.5 16.5 0 0 1 29.311 7.208 Z" fill="rgb(245,150,135)"/><path d="M22 22 L29.233 7.170 A16.5 16.5 0 0 1 29.822 7.472 Z" fill="rgb(244,149,135)"/><path d="M22 22 L29.746 7.431 A16.5 16.5 0 0 1 30.325 7.754 Z" fill="rgb(244,148,134)"/><path d="M22 22 L30.250 7.711 A16.5 16.5 0 0 1 30.817 8.053 Z" fill="rgb(244,147,134)"/><path d="M22 22 L30.744 8.007 A16.5 16.5 0 0 1 31.298 8.369 Z" fill="rgb(243,145,133)"/><path d="M22 22 L31.227 8.321 A16.5 16.5 0 0 1 31.768 8.702 Z" fill="rgb(243,144,132)"/><path d="M22 22 L31.698 8.651 A16.5 16.5 0 0 1 32.226 9.051 Z" fill="rgb(242,143,132)"/><path d="M22 22 L32.158 8.998 A16.5 16.5 0 0 1 32.672 9.416 Z" fill="rgb(242,142,131)"/><path d="M22 22 L32.606 9.360 A16.5 16.5 0 0 1 33.105 9.796 Z" fill="rgb(242,141,130)"/><path d="M22 22 L33.041 9.738 A16.5 16.5 0 0 1 33.524 10.191 Z" fill="rgb(241,140,130)"/><path d="M22 22 L33.462 10.131 A16.5 16.5 0 0 1 33.929 10.600 Z" fill="rgb(241,139,129)"/><path d="M22 22 L33.869 10.538 A16.5 16.5 0 0 1 34.320 11.024 Z" fill="rgb(240,138,128)"/><path d="M22 22 L34.262 10.959 A16.5 16.5 0 0 1 34.695 11.460 Z" fill="rgb(240,137,128)"/><path d="M22 22 L34.640 11.394 A16.5 16.5 0 0 1 35.055 11.910 Z" fill="rgb(240,136,127)"/><path d="M22 22 L35.002 11.842 A16.5 16.5 0 0 1 35.399 12.372 Z" fill="rgb(239,135,126)"/><path d="M22 22 L35.349 12.302 A16.5 16.5 0 0 1 35.727 12.845 Z" fill="rgb(239,134,126)"/><path d="M22 22 L35.679 12.773 A16.5 16.5 0 0 1 36.038 13.330 Z" fill="rgb(239,133,125)"/><path d="M22 22 L35.993 13.256 A16.5 16.5 0 0 1 36.332 13.825 Z" fill="rgb(238,132,124)"/><path d="M22 22 L36.289 13.750 A16.5 16.5 0 0 1 36.609 14.330 Z" fill="rgb(238,131,124)"/><path d="M22 22 L36.569 14.254 A16.5 16.5 0 0 1 36.868 14.845 Z" fill="rgb(237,130,123)"/><path d="M22 22 L36.830 14.767 A16.5 16.5 0 0 1 37.108 15.368 Z" fill="rgb(237,129,122)"/><path d="M22 22 L37.074 15.289 A16.5 16.5 0 0 1 37.331 15.899 Z" fill="rgb(237,128,122)"/><path d="M22 22 L37.299 15.819 A16.5 16.5 0 0 1 37.534 16.438 Z" fill="rgb(236,127,121)"/><path d="M22 22 L37.505 16.357 A16.5 16.5 0 0 1 37.719 16.983 Z" fill="rgb(236,126,121)"/><path d="M22 22 L37.692 16.901 A16.5 16.5 0 0 1 37.884 17.535 Z" fill="rgb(235,125,120)"/><path d="M22 22 L37.861 17.452 A16.5 16.5 0 0 1 38.031 18.092 Z" fill="rgb(235,124,119)"/><path d="M22 22 L38.010 18.008 A16.5 16.5 0 0 1 38.157 18.654 Z" fill="rgb(235,123,119)"/><path d="M22 22 L38.139 18.569 A16.5 16.5 0 0 1 38.264 19.220 Z" fill="rgb(234,122,118)"/><path d="M22 22 L38.249 19.135 A16.5 16.5 0 0 1 38.351 19.789 Z" fill="rgb(234,121,117)"/><path d="M22 22 L38.339 19.704 A16.5 16.5 0 0 1 38.418 20.361 Z" fill="rgb(234,120,117)"/><path d="M22 22 L38.410 20.275 A16.5 16.5 0 0 1 38.466 20.935 Z" fill="rgb(233,119,116)"/><path d="M22 22 L38.460 20.849 A16.5 16.5 0 0 1 38.493 21.511 Z" fill="rgb(233,118,115)"/><path d="M22 22 L38.490 21.424 A16.5 16.5 0 0 1 38.500 22.086 Z" fill="rgb(232,117,115)"/><path d="M22 22 L38.500 22.000 A16.5 16.5 0 0 1 38.487 22.662 Z" fill="rgb(232,116,114)"/><path d="M22 22 L38.490 22.576 A16.5 16.5 0 0 1 38.454 23.237 Z" fill="rgb(231,115,113)"/><path d="M22 22 L38.460 23.151 A16.5 16.5 0 0 1 38.400 23.811 Z" fill="rgb(231,114,112)"/><path d="M22 22 L38.410 23.725 A16.5 16.5 0 0 1 38.327 24.382 Z" fill="rgb(230,113,111)"/><path d="M22 22 L38.339 24.296 A16.5 16.5 0 0 1 38.234 24.950 Z" fill="rgb(230,113,111)"/><path d="M22 22 L38.249 24.865 A16.5 16.5 0 0 1 38.121 25.515 Z" fill="rgb(229,112,110)"/><path d="M22 22 L38.139 25.431 A16.5 16.5 0 0 1 37.989 26.075 Z" fill="rgb(229,111,109)"/><path d="M22 22 L38.010 25.992 A16.5 16.5 0 0 1 37.837 26.631 Z" fill="rgb(228,110,108)"/><path d="M22 22 L37.861 26.548 A16.5 16.5 0 0 1 37.666 27.181 Z" fill="rgb(228,109,107)"/><path d="M22 22 L37.692 27.099 A16.5 16.5 0 0 1 37.475 27.724 Z" fill="rgb(227,108,106)"/><path d="M22 22 L37.505 27.643 A16.5 16.5 0 0 1 37.266 28.261 Z" fill="rgb(227,107,106)"/><path d="M22 22 L37.299 28.181 A16.5 16.5 0 0 1 37.038 28.790 Z" fill="rgb(226,106,105)"/><path d="M22 22 L37.074 28.711 A16.5 16.5 0 0 1 36.792 29.311 Z" fill="rgb(226,106,104)"/><path d="M22 22 L36.830 29.233 A16.5 16.5 0 0 1 36.528 29.822 Z" fill="rgb(225,105,103)"/><path d="M22 22 L36.569 29.746 A16.5 16.5 0 0 1 36.246 30.325 Z" fill="rgb(225,104,102)"/><path d="M22 22 L36.289 30.250 A16.5 16.5 0 0 1 35.947 30.817 Z" fill="rgb(224,103,101)"/><path d="M22 22 L35.993 30.744 A16.5 16.5 0 0 1 35.631 31.298 Z" fill="rgb(223,102,100)"/><path d="M22 22 L35.679 31.227 A16.5 16.5 0 0 1 35.298 31.768 Z" fill="rgb(223,101,100)"/><path d="M22 22 L35.349 31.698 A16.5 16.5 0 0 1 34.949 32.226 Z" fill="rgb(222,100,99)"/><path d="M22 22 L35.002 32.158 A16.5 16.5 0 0 1 34.584 32.672 Z" fill="rgb(222,100,98)"/><path d="M22 22 L34.640 32.606 A16.5 16.5 0 0 1 34.204 33.105 Z" fill="rgb(221,99,97)"/><path d="M22 22 L34.262 33.041 A16.5 16.5 0 0 1 33.809 33.524 Z" fill="rgb(221,98,96)"/><path d="M22 22 L33.869 33.462 A16.5 16.5 0 0 1 33.400 33.929 Z" fill="rgb(220,97,95)"/><path d="M22 22 L33.462 33.869 A16.5 16.5 0 0 1 32.976 34.320 Z" fill="rgb(220,96,94)"/><path d="M22 22 L33.041 34.262 A16.5 16.5 0 0 1 32.540 34.695 Z" fill="rgb(219,95,94)"/><path d="M22 22 L32.606 34.640 A16.5 16.5 0 0 1 32.090 35.055 Z" fill="rgb(219,94,93)"/><path d="M22 22 L32.158 35.002 A16.5 16.5 0 0 1 31.628 35.399 Z" fill="rgb(218,93,92)"/><path d="M22 22 L31.698 35.349 A16.5 16.5 0 0 1 31.155 35.727 Z" fill="rgb(218,93,91)"/><path d="M22 22 L31.227 35.679 A16.5 16.5 0 0 1 30.670 36.038 Z" fill="rgb(217,92,90)"/><path d="M22 22 L30.744 35.993 A16.5 16.5 0 0 1 30.175 36.332 Z" fill="rgb(217,91,89)"/><path d="M22 22 L30.250 36.289 A16.5 16.5 0 0 1 29.670 36.609 Z" fill="rgb(216,90,89)"/><path d="M22 22 L29.746 36.569 A16.5 16.5 0 0 1 29.155 36.868 Z" fill="rgb(215,89,88)"/><path d="M22 22 L29.233 36.830 A16.5 16.5 0 0 1 28.632 37.108 Z" fill="rgb(215,88,87)"/><path d="M22 22 L28.711 37.074 A16.5 16.5 0 0 1 28.101 37.331 Z" fill="rgb(214,87,86)"/><path d="M22 22 L28.181 37.299 A16.5 16.5 0 0 1 27.562 37.534 Z" fill="rgb(214,87,85)"/><path d="M22 22 L27.643 37.505 A16.5 16.5 0 0 1 27.017 37.719 Z" fill="rgb(213,86,84)"/><path d="M22 22 L27.099 37.692 A16.5 16.5 0 0 1 26.465 37.884 Z" fill="rgb(213,85,83)"/><path d="M22 22 L26.548 37.861 A16.5 16.5 0 0 1 25.908 38.031 Z" fill="rgb(212,84,83)"/><path d="M22 22 L25.992 38.010 A16.5 16.5 0 0 1 25.346 38.157 Z" fill="rgb(212,83,82)"/><path d="M22 22 L25.431 38.139 A16.5 16.5 0 0 1 24.780 38.264 Z" fill="rgb(211,82,81)"/><path d="M22 22 L24.865 38.249 A16.5 16.5 0 0 1 24.211 38.351 Z" fill="rgb(211,81,80)"/><path d="M22 22 L24.296 38.339 A16.5 16.5 0 0 1 23.639 38.418 Z" fill="rgb(210,80,79)"/><path d="M22 22 L23.725 38.410 A16.5 16.5 0 0 1 23.065 38.466 Z" fill="rgb(210,80,78)"/><path d="M22 22 L23.151 38.460 A16.5 16.5 0 0 1 22.489 38.493 Z" fill="rgb(209,79,77)"/><path d="M22 22 L22.576 38.490 A16.5 16.5 0 0 1 21.914 38.500 Z" fill="rgb(209,78,77)"/><path d="M22 22 L22.000 38.500 A16.5 16.5 0 0 1 21.338 38.487 Z" fill="rgb(208,77,76)"/><path d="M22 22 L21.424 38.490 A16.5 16.5 0 0 1 20.763 38.454 Z" fill="rgb(207,76,75)"/><path d="M22 22 L20.849 38.460 A16.5 16.5 0 0 1 20.189 38.400 Z" fill="rgb(207,75,74)"/><path d="M22 22 L20.275 38.410 A16.5 16.5 0 0 1 19.618 38.327 Z" fill="rgb(206,74,73)"/><path d="M22 22 L19.704 38.339 A16.5 16.5 0 0 1 19.050 38.234 Z" fill="rgb(206,74,72)"/><path d="M22 22 L19.135 38.249 A16.5 16.5 0 0 1 18.485 38.121 Z" fill="rgb(205,73,72)"/><path d="M22 22 L18.569 38.139 A16.5 16.5 0 0 1 17.925 37.989 Z" fill="rgb(205,72,71)"/><path d="M22 22 L18.008 38.010 A16.5 16.5 0 0 1 17.369 37.837 Z" fill="rgb(204,71,70)"/><path d="M22 22 L17.452 37.861 A16.5 16.5 0 0 1 16.819 37.666 Z" fill="rgb(204,70,69)"/><path d="M22 22 L16.901 37.692 A16.5 16.5 0 0 1 16.276 37.475 Z" fill="rgb(203,69,68)"/><path d="M22 22 L16.357 37.505 A16.5 16.5 0 0 1 15.739 37.266 Z" fill="rgb(203,68,67)"/><path d="M22 22 L15.819 37.299 A16.5 16.5 0 0 1 15.210 37.038 Z" fill="rgb(202,67,66)"/><path d="M22 22 L15.289 37.074 A16.5 16.5 0 0 1 14.689 36.792 Z" fill="rgb(202,67,66)"/><path d="M22 22 L14.767 36.830 A16.5 16.5 0 0 1 14.178 36.528 Z" fill="rgb(201,66,65)"/><path d="M22 22 L14.254 36.569 A16.5 16.5 0 0 1 13.675 36.246 Z" fill="rgb(201,65,64)"/></g>
</svg>
