<?xml version="1.0" encoding="UTF-8" standalone="no"?><!DOCTYPE svg PUBLIC "-//W3C//DTD SVG 1.1//EN" "http://www.w3.org/Graphics/SVG/1.1/DTD/svg11.dtd"><svg width="100%" height="100%" viewBox="0 0 267 267" version="1.1" xmlns="http://www.w3.org/2000/svg" xmlns:xlink="http://www.w3.org/1999/xlink" xml:space="preserve" xmlns:serif="http://www.serif.com/" style="fill-rule:evenodd;clip-rule:evenodd;stroke-linejoin:round;stroke-miterlimit:2;"><circle cx="133.333" cy="133.333" r="125" style="fill:url(#_Radial1);"/><g><clipPath id="_clip2"><circle cx="133.333" cy="133.333" r="83.333"/></clipPath><g clip-path="url(#_clip2)"><path d="M133.333,133.333l-42.708,73.975c-0.99,-0.572 -1.968,-1.164 -2.933,-1.775l45.642,-72.2Z" style="fill:#c8403f;fill-rule:nonzero;"/><path d="M133.333,133.333l-45.263,72.438c-0.969,-0.606 -1.927,-1.231 -2.871,-1.875l48.133,-70.563Z" style="fill:#c94241;fill-rule:nonzero;"/><path d="M133.333,133.333l-47.763,70.812c-0.948,-0.638 -1.883,-1.295 -2.804,-1.971l50.567,-68.842Z" style="fill:#ca4442;fill-rule:nonzero;"/><path d="M133.333,133.333l-50.208,69.104c-0.923,-0.672 -1.833,-1.362 -2.729,-2.071l52.937,-67.033Z" style="fill:#cb4644;fill-rule:nonzero;"/><path d="M133.333,133.333l-52.587,67.308c-0.9,-0.703 -1.787,-1.424 -2.658,-2.163l55.246,-65.146Z" style="fill:#cc4845;fill-rule:nonzero;"/><path d="M133.333,133.333l-54.904,65.433c-0.876,-0.735 -1.737,-1.488 -2.583,-2.258l57.488,-63.175Z" style="fill:#cd4947;fill-rule:nonzero;"/><path d="M133.333,133.333l-57.154,63.475c-0.85,-0.764 -1.685,-1.544 -2.504,-2.342l59.658,-61.133Z" style="fill:#ce4b48;fill-rule:nonzero;"/><path d="M133.333,133.333l-59.333,61.442c-0.823,-0.793 -1.63,-1.603 -2.421,-2.429l61.754,-59.012Z" style="fill:#ce4d4a;fill-rule:nonzero;"/><path d="M133.333,133.333l-61.442,59.333c-0.795,-0.822 -1.572,-1.659 -2.333,-2.512l63.775,-56.821Z" style="fill:#cf4f4b;fill-rule:nonzero;"/><path d="M133.333,133.333l-63.475,57.154c-0.766,-0.849 -1.515,-1.713 -2.246,-2.592l65.721,-54.562Z" style="fill:#d0514d;fill-rule:nonzero;"/><path d="M133.333,133.333l-65.433,54.904c-0.734,-0.876 -1.451,-1.766 -2.15,-2.671l67.583,-52.233Z" style="fill:#d1534e;fill-rule:nonzero;"/><path d="M133.333,133.333l-67.308,52.588c-0.704,-0.9 -1.391,-1.814 -2.058,-2.742l69.367,-49.846Z" style="fill:#d25550;fill-rule:nonzero;"/><path d="M133.333,133.333l-69.104,50.208c-0.672,-0.926 -1.324,-1.865 -1.958,-2.817l71.063,-47.392Z" style="fill:#d35751;fill-rule:nonzero;"/><path d="M133.333,133.333l-70.812,47.763c-0.64,-0.947 -1.261,-1.907 -1.862,-2.879l72.675,-44.883Z" style="fill:#d45853;fill-rule:nonzero;"/><path d="M133.333,133.333l-72.438,45.262c-0.606,-0.969 -1.192,-1.949 -1.758,-2.942l74.196,-42.321Z" style="fill:#d55a54;fill-rule:nonzero;"/><path d="M133.333,133.333l-73.975,42.708c-0.571,-0.99 -1.123,-1.992 -1.654,-3.004l75.629,-39.704Z" style="fill:#d65c56;fill-rule:nonzero;"/><path d="M133.333,133.333l-75.417,40.1c-0.537,-1.009 -1.054,-2.029 -1.55,-3.058l76.967,-37.042Z" style="fill:#d75e57;fill-rule:nonzero;"/><path d="M133.333,133.333l-76.771,37.446c-0.501,-1.028 -0.982,-2.065 -1.442,-3.113l78.213,-34.333Z" style="fill:#d86059;fill-rule:nonzero;"/><path d="M133.333,133.333l-78.033,34.742c-0.464,-1.044 -0.907,-2.097 -1.329,-3.158l79.363,-31.583Z" style="fill:#d9625a;fill-rule:nonzero;"/><path d="M133.333,133.333l-79.196,31.996c-0.428,-1.06 -0.835,-2.128 -1.221,-3.204l80.417,-28.792Z" style="fill:#d9645c;fill-rule:nonzero;"/><path d="M133.333,133.333l-80.267,29.213c-0.391,-1.073 -0.761,-2.154 -1.108,-3.242l81.375,-25.971Z" style="fill:#da665d;fill-rule:nonzero;"/><path d="M133.333,133.333l-81.238,26.396c-0.352,-1.088 -0.683,-2.182 -0.992,-3.283l82.229,-23.112Z" style="fill:#db685f;fill-rule:nonzero;"/><path d="M133.333,133.333l-82.108,23.546c-0.315,-1.1 -0.608,-2.205 -0.879,-3.317l82.987,-20.229Z" style="fill:#dc6960;fill-rule:nonzero;"/><path d="M133.333,133.333l-82.879,20.663c-0.276,-1.109 -0.531,-2.223 -0.763,-3.342l83.642,-17.321Z" style="fill:#dd6b62;fill-rule:nonzero;"/><path d="M133.333,133.333l-83.55,17.758c-0.238,-1.118 -0.453,-2.24 -0.646,-3.367l84.196,-14.392Z" style="fill:#de6d63;fill-rule:nonzero;"/><path d="M133.333,133.333l-84.121,14.833c-0.198,-1.126 -0.373,-2.255 -0.525,-3.388l84.646,-11.446Z" style="fill:#df6f65;fill-rule:nonzero;"/><path d="M133.333,133.333l-84.583,11.888c-0.16,-1.132 -0.298,-2.267 -0.412,-3.404l84.996,-8.483Z" style="fill:#e07166;fill-rule:nonzero;"/><path d="M133.333,133.333l-84.95,8.929c-0.119,-1.137 -0.215,-2.276 -0.287,-3.417l85.237,-5.513Z" style="fill:#e17368;fill-rule:nonzero;"/><path d="M133.333,133.333l-85.208,5.958c-0.08,-1.14 -0.137,-2.282 -0.171,-3.425l85.379,-2.533Z" style="fill:#e27569;fill-rule:nonzero;"/><path d="M133.333,133.333l-85.367,2.979c-0.04,-1.141 -0.056,-2.283 -0.05,-3.425l85.417,0.446Z" style="fill:#e3776b;fill-rule:nonzero;"/><path d="M133.333,133.333l-85.417,0c0.001,-1.143 0.024,-2.287 0.071,-3.429l85.346,3.429Z" style="fill:#e4796c;fill-rule:nonzero;"/><path d="M133.333,133.333l-85.367,-2.979c0.041,-1.143 0.105,-2.285 0.192,-3.425l85.175,6.404Z" style="fill:#e47a6e;fill-rule:nonzero;"/><path d="M133.333,133.333l-85.208,-5.958c0.08,-1.141 0.183,-2.28 0.308,-3.417l84.9,9.375Z" style="fill:#e57c6f;fill-rule:nonzero;"/><path d="M133.333,133.333l-84.95,-8.929c0.12,-1.136 0.263,-2.27 0.429,-3.4l84.521,12.329Z" style="fill:#e67e71;fill-rule:nonzero;"/><path d="M133.333,133.333l-84.583,-11.888c0.158,-1.131 0.339,-2.259 0.542,-3.383l84.042,15.271Z" style="fill:#e78072;fill-rule:nonzero;"/><path d="M133.333,133.333l-84.121,-14.833c0.2,-1.125 0.422,-2.246 0.667,-3.362l83.454,18.196Z" style="fill:#e88274;fill-rule:nonzero;"/><path d="M133.333,133.333l-83.55,-17.758c0.237,-1.118 0.497,-2.23 0.779,-3.337l82.771,21.096Z" style="fill:#e98475;fill-rule:nonzero;"/><path d="M133.333,133.333l-82.879,-20.662c0.276,-1.11 0.575,-2.214 0.896,-3.312l81.983,23.975Z" style="fill:#ea8677;fill-rule:nonzero;"/><path d="M133.333,133.333l-82.108,-23.546c0.316,-1.098 0.653,-2.19 1.013,-3.275l81.096,26.821Z" style="fill:#eb8878;fill-rule:nonzero;"/><path d="M133.333,133.333l-81.238,-26.396c0.353,-1.087 0.728,-2.166 1.125,-3.237l80.113,29.633Z" style="fill:#ec897a;fill-rule:nonzero;"/><path d="M133.333,133.333l-80.267,-29.213c0.391,-1.075 0.804,-2.142 1.237,-3.2l79.029,32.412Z" style="fill:#ed8b7b;fill-rule:nonzero;"/><path d="M133.333,133.333l-79.196,-31.996c0.427,-1.06 0.876,-2.112 1.346,-3.154l77.85,35.15Z" style="fill:#ee8d7d;fill-rule:nonzero;"/><path d="M133.333,133.333l-78.033,-34.742c0.465,-1.044 0.951,-2.079 1.458,-3.104l76.575,37.846Z" style="fill:#ef8f7e;fill-rule:nonzero;"/><path d="M133.333,133.333l-76.771,-37.446c0.5,-1.027 1.021,-2.044 1.562,-3.05l75.208,40.496Z" style="fill:#ef9180;fill-rule:nonzero;"/><path d="M133.333,133.333l-75.417,-40.1c0.535,-1.01 1.091,-2.008 1.667,-2.996l73.75,43.096Z" style="fill:#f09381;fill-rule:nonzero;"/><path d="M133.333,133.333l-73.975,-42.708c0.572,-0.99 1.164,-1.968 1.775,-2.933l72.2,45.642Z" style="fill:#f19583;fill-rule:nonzero;"/><path d="M133.333,133.333l-72.438,-45.263c0.606,-0.969 1.231,-1.927 1.875,-2.871l70.563,48.133Z" style="fill:#f29784;fill-rule:nonzero;"/><path d="M133.333,133.333l-70.812,-47.763c0.638,-0.948 1.295,-1.883 1.971,-2.804l68.842,50.567Z" style="fill:#f39986;fill-rule:nonzero;"/><path d="M133.333,133.333l-69.104,-50.208c0.672,-0.923 1.362,-1.833 2.071,-2.729l67.033,52.937Z" style="fill:#f49a87;fill-rule:nonzero;"/><path d="M133.333,133.333l-67.308,-52.587c0.703,-0.9 1.424,-1.787 2.162,-2.658l65.146,55.246Z" style="fill:#f59c89;fill-rule:nonzero;"/><path d="M133.333,133.333l-65.433,-54.904c0.735,-0.876 1.488,-1.737 2.258,-2.583l63.175,57.487Z" style="fill:#f69e8a;fill-rule:nonzero;"/><path d="M133.333,133.333l-63.475,-57.154c0.764,-0.85 1.544,-1.685 2.342,-2.504l61.133,59.658Z" style="fill:#f7a08c;fill-rule:nonzero;"/><path d="M133.333,133.333l-61.442,-59.333c0.793,-0.823 1.603,-1.63 2.429,-2.421l59.013,61.754Z" style="fill:#f8a28d;fill-rule:nonzero;"/><path d="M133.333,133.333l-59.333,-61.442c0.822,-0.795 1.659,-1.572 2.512,-2.333l56.821,63.775Z" style="fill:#f9a48f;fill-rule:nonzero;"/><path d="M133.333,133.333l-57.154,-63.475c0.849,-0.766 1.713,-1.515 2.592,-2.246l54.563,65.721Z" style="fill:#faa690;fill-rule:nonzero;"/><path d="M133.333,133.333l-54.904,-65.433c0.876,-0.734 1.766,-1.451 2.671,-2.15l52.233,67.583Z" style="fill:#faa892;fill-rule:nonzero;"/><path d="M133.333,133.333l-52.587,-67.308c0.9,-0.704 1.814,-1.391 2.742,-2.058l49.846,69.367Z" style="fill:#fba993;fill-rule:nonzero;"/><path d="M133.333,133.333l-50.208,-69.104c0.926,-0.672 1.865,-1.324 2.817,-1.958l47.392,71.063Z" style="fill:#fcab95;fill-rule:nonzero;"/><path d="M133.333,133.333l-47.763,-70.812c0.947,-0.64 1.907,-1.261 2.879,-1.862l44.883,72.675Z" style="fill:#fdad96;fill-rule:nonzero;"/><path d="M133.333,133.333l-45.263,-72.438c0.969,-0.606 1.949,-1.192 2.942,-1.758l42.321,74.196Z" style="fill:#feaf98;fill-rule:nonzero;"/><path d="M133.333,133.333l-42.708,-73.975c0.99,-0.571 1.992,-1.123 3.004,-1.654l39.704,75.629Z" style="fill:#ffb199;fill-rule:nonzero;"/><path d="M133.333,133.333l-40.1,-75.417c1.009,-0.537 2.029,-1.054 3.058,-1.55l37.042,76.967Z" style="fill:#ffb098;fill-rule:nonzero;"/><path d="M133.333,133.333l-37.446,-76.771c1.028,-0.501 2.065,-0.982 3.113,-1.442l34.333,78.213Z" style="fill:#feaf98;fill-rule:nonzero;"/><path d="M133.333,133.333l-34.742,-78.033c1.044,-0.464 2.097,-0.907 3.158,-1.329l31.583,79.362Z" style="fill:#feae97;fill-rule:nonzero;"/><path d="M133.333,133.333l-31.996,-79.196c1.06,-0.428 2.128,-0.835 3.204,-1.221l28.792,80.417Z" style="fill:#fdad96;fill-rule:nonzero;"/><path d="M133.333,133.333l-29.213,-80.267c1.073,-0.391 2.154,-0.761 3.242,-1.108l25.971,81.375Z" style="fill:#fdac96;fill-rule:nonzero;"/><path d="M133.333,133.333l-26.396,-81.238c1.088,-0.352 2.182,-0.683 3.283,-0.992l23.113,82.229Z" style="fill:#fdab95;fill-rule:nonzero;"/><path d="M133.333,133.333l-23.546,-82.108c1.1,-0.315 2.205,-0.608 3.317,-0.879l20.229,82.988Z" style="fill:#fcaa94;fill-rule:nonzero;"/><path d="M133.333,133.333l-20.662,-82.879c1.109,-0.276 2.223,-0.531 3.342,-0.762l17.321,83.642Z" style="fill:#fca994;fill-rule:nonzero;"/><path d="M133.333,133.333l-17.758,-83.55c1.118,-0.238 2.24,-0.453 3.367,-0.646l14.392,84.196Z" style="fill:#fca893;fill-rule:nonzero;"/><path d="M133.333,133.333l-14.833,-84.121c1.126,-0.198 2.255,-0.373 3.387,-0.525l11.446,84.646Z" style="fill:#fba793;fill-rule:nonzero;"/><path d="M133.333,133.333l-11.888,-84.583c1.132,-0.16 2.267,-0.298 3.404,-0.412l8.483,84.996Z" style="fill:#fba692;fill-rule:nonzero;"/><path d="M133.333,133.333l-8.929,-84.95c1.137,-0.119 2.276,-0.215 3.417,-0.287l5.513,85.237Z" style="fill:#faa591;fill-rule:nonzero;"/><path d="M133.333,133.333l-5.958,-85.208c1.14,-0.08 2.282,-0.137 3.425,-0.171l2.533,85.379Z" style="fill:#faa491;fill-rule:nonzero;"/><path d="M133.333,133.333l-2.979,-85.367c1.141,-0.04 2.283,-0.056 3.425,-0.05l-0.446,85.417Z" style="fill:#faa390;fill-rule:nonzero;"/><path d="M133.333,133.333l0,-85.417c1.143,0.001 2.287,0.024 3.429,0.071l-3.429,85.346Z" style="fill:#f9a28f;fill-rule:nonzero;"/><path d="M133.333,133.333l2.979,-85.367c1.143,0.041 2.285,0.105 3.425,0.192l-6.404,85.175Z" style="fill:#f9a18f;fill-rule:nonzero;"/><path d="M133.333,133.333l5.958,-85.208c1.141,0.08 2.28,0.183 3.417,0.308l-9.375,84.9Z" style="fill:#f8a08e;fill-rule:nonzero;"/><path d="M133.333,133.333l8.929,-84.95c1.136,0.12 2.27,0.263 3.4,0.429l-12.329,84.521Z" style="fill:#f89f8d;fill-rule:nonzero;"/><path d="M133.333,133.333l11.888,-84.583c1.131,0.158 2.259,0.339 3.383,0.542l-15.271,84.042Z" style="fill:#f89e8d;fill-rule:nonzero;"/><path d="M133.333,133.333l14.833,-84.121c1.125,0.2 2.246,0.422 3.362,0.667l-18.196,83.454Z" style="fill:#f79d8c;fill-rule:nonzero;"/><path d="M133.333,133.333l17.758,-83.55c1.118,0.237 2.23,0.497 3.338,0.779l-21.096,82.771Z" style="fill:#f79c8b;fill-rule:nonzero;"/><path d="M133.333,133.333l20.663,-82.879c1.11,0.276 2.214,0.575 3.312,0.896l-23.975,81.983Z" style="fill:#f79b8b;fill-rule:nonzero;"/><path d="M133.333,133.333l23.546,-82.108c1.098,0.316 2.19,0.653 3.275,1.012l-26.821,81.096Z" style="fill:#f69a8a;fill-rule:nonzero;"/><path d="M133.333,133.333l26.396,-81.238c1.087,0.353 2.166,0.728 3.237,1.125l-29.633,80.113Z" style="fill:#f69989;fill-rule:nonzero;"/><path d="M133.333,133.333l29.213,-80.267c1.075,0.391 2.142,0.804 3.2,1.237l-32.412,79.029Z" style="fill:#f59889;fill-rule:nonzero;"/><path d="M133.333,133.333l31.996,-79.196c1.06,0.427 2.112,0.876 3.154,1.346l-35.15,77.85Z" style="fill:#f59788;fill-rule:nonzero;"/><path d="M133.333,133.333l34.742,-78.033c1.044,0.465 2.079,0.951 3.104,1.458l-37.846,76.575Z" style="fill:#f59687;fill-rule:nonzero;"/><path d="M133.333,133.333l37.446,-76.771c1.027,0.5 2.044,1.021 3.05,1.563l-40.496,75.208Z" style="fill:#f49587;fill-rule:nonzero;"/><path d="M133.333,133.333l40.1,-75.417c1.01,0.535 2.008,1.091 2.996,1.667l-43.096,73.75Z" style="fill:#f49486;fill-rule:nonzero;"/><path d="M133.333,133.333l42.708,-73.975c0.99,0.572 1.968,1.164 2.933,1.775l-45.642,72.2Z" style="fill:#f49386;fill-rule:nonzero;"/><path d="M133.333,133.333l45.262,-72.438c0.969,0.606 1.927,1.231 2.871,1.875l-48.133,70.563Z" style="fill:#f39185;fill-rule:nonzero;"/><path d="M133.333,133.333l47.763,-70.812c0.948,0.638 1.883,1.295 2.804,1.971l-50.567,68.842Z" style="fill:#f39084;fill-rule:nonzero;"/><path d="M133.333,133.333l50.208,-69.104c0.923,0.672 1.833,1.362 2.729,2.071l-52.938,67.033Z" style="fill:#f28f84;fill-rule:nonzero;"/><path d="M133.333,133.333l52.588,-67.308c0.9,0.703 1.787,1.424 2.658,2.162l-55.246,65.146Z" style="fill:#f28e83;fill-rule:nonzero;"/><path d="M133.333,133.333l54.904,-65.433c0.876,0.735 1.737,1.488 2.583,2.258l-57.487,63.175Z" style="fill:#f28d82;fill-rule:nonzero;"/><path d="M133.333,133.333l57.154,-63.475c0.85,0.764 1.685,1.544 2.504,2.342l-59.658,61.133Z" style="fill:#f18c82;fill-rule:nonzero;"/><path d="M133.333,133.333l59.333,-61.442c0.823,0.793 1.63,1.603 2.421,2.429l-61.754,59.013Z" style="fill:#f18b81;fill-rule:nonzero;"/><path d="M133.333,133.333l61.442,-59.333c0.795,0.822 1.572,1.659 2.333,2.513l-63.775,56.821Z" style="fill:#f08a80;fill-rule:nonzero;"/><path d="M133.333,133.333l63.475,-57.154c0.766,0.849 1.515,1.713 2.246,2.592l-65.721,54.562Z" style="fill:#f08980;fill-rule:nonzero;"/><path d="M133.333,133.333l65.433,-54.904c0.734,0.876 1.451,1.766 2.15,2.671l-67.583,52.233Z" style="fill:#f0887f;fill-rule:nonzero;"/><path d="M133.333,133.333l67.308,-52.587c0.704,0.9 1.391,1.814 2.058,2.742l-69.367,49.846Z" style="fill:#ef877e;fill-rule:nonzero;"/><path d="M133.333,133.333l69.104,-50.208c0.672,0.926 1.324,1.865 1.958,2.817l-71.062,47.392Z" style="fill:#ef867e;fill-rule:nonzero;"/><path d="M133.333,133.333l70.812,-47.763c0.64,0.947 1.261,1.907 1.862,2.879l-72.675,44.883Z" style="fill:#ef857d;fill-rule:nonzero;"/><path d="M133.333,133.333l72.438,-45.263c0.606,0.969 1.192,1.949 1.758,2.942l-74.196,42.321Z" style="fill:#ee847c;fill-rule:nonzero;"/><path d="M133.333,133.333l73.975,-42.708c0.571,0.99 1.123,1.992 1.654,3.004l-75.629,39.704Z" style="fill:#ee837c;fill-rule:nonzero;"/><path d="M133.333,133.333l75.417,-40.1c0.537,1.009 1.054,2.029 1.55,3.058l-76.967,37.042Z" style="fill:#ed827b;fill-rule:nonzero;"/><path d="M133.333,133.333l76.771,-37.446c0.501,1.028 0.982,2.065 1.442,3.112l-78.213,34.333Z" style="fill:#ed817a;fill-rule:nonzero;"/><path d="M133.333,133.333l78.033,-34.742c0.464,1.044 0.907,2.097 1.329,3.158l-79.363,31.583Z" style="fill:#ed807a;fill-rule:nonzero;"/><path d="M133.333,133.333l79.196,-31.996c0.428,1.06 0.835,2.128 1.221,3.204l-80.417,28.792Z" style="fill:#ec7f79;fill-rule:nonzero;"/><path d="M133.333,133.333l80.267,-29.213c0.391,1.073 0.761,2.154 1.108,3.242l-81.375,25.971Z" style="fill:#ec7e79;fill-rule:nonzero;"/><path d="M133.333,133.333l81.238,-26.396c0.352,1.088 0.683,2.182 0.992,3.283l-82.229,23.113Z" style="fill:#eb7d78;fill-rule:nonzero;"/><path d="M133.333,133.333l82.108,-23.546c0.315,1.1 0.608,2.205 0.879,3.317l-82.988,20.229Z" style="fill:#eb7c77;fill-rule:nonzero;"/><path d="M133.333,133.333l82.879,-20.662c0.276,1.109 0.531,2.223 0.762,3.342l-83.642,17.321Z" style="fill:#eb7b77;fill-rule:nonzero;"/><path d="M133.333,133.333l83.55,-17.758c0.238,1.118 0.453,2.24 0.646,3.367l-84.196,14.392Z" style="fill:#ea7a76;fill-rule:nonzero;"/><path d="M133.333,133.333l84.121,-14.833c0.198,1.126 0.373,2.255 0.525,3.387l-84.646,11.446Z" style="fill:#ea7975;fill-rule:nonzero;"/><path d="M133.333,133.333l84.583,-11.888c0.16,1.132 0.298,2.267 0.413,3.404l-84.996,8.483Z" style="fill:#ea7875;fill-rule:nonzero;"/><path d="M133.333,133.333l84.95,-8.929c0.119,1.137 0.215,2.276 0.288,3.417l-85.238,5.512Z" style="fill:#e97774;fill-rule:nonzero;"/><path d="M133.333,133.333l85.208,-5.958c0.08,1.14 0.137,2.282 0.171,3.425l-85.379,2.533Z" style="fill:#e97673;fill-rule:nonzero;"/><path d="M133.333,133.333l85.367,-2.979c0.04,1.141 0.056,2.283 0.05,3.425l-85.417,-0.446Z" style="fill:#e87573;fill-rule:nonzero;"/><path d="M133.333,133.333l85.417,0c-0.001,1.143 -0.024,2.287 -0.071,3.429l-85.346,-3.429Z" style="fill:#e87472;fill-rule:nonzero;"/><path d="M133.333,133.333l85.367,2.979c-0.041,1.143 -0.105,2.285 -0.192,3.425l-85.175,-6.404Z" style="fill:#e77371;fill-rule:nonzero;"/><path d="M133.333,133.333l85.208,5.958c-0.08,1.141 -0.183,2.28 -0.308,3.417l-84.9,-9.375Z" style="fill:#e77270;fill-rule:nonzero;"/><path d="M133.333,133.333l84.95,8.929c-0.12,1.136 -0.263,2.27 -0.429,3.4l-84.521,-12.329Z" style="fill:#e6716f;fill-rule:nonzero;"/><path d="M133.333,133.333l84.583,11.888c-0.158,1.131 -0.339,2.259 -0.542,3.383l-84.042,-15.271Z" style="fill:#e6716f;fill-rule:nonzero;"/><path d="M133.333,133.333l84.121,14.833c-0.2,1.125 -0.422,2.246 -0.667,3.362l-83.454,-18.196Z" style="fill:#e5706e;fill-rule:nonzero;"/><path d="M133.333,133.333l83.55,17.758c-0.237,1.118 -0.497,2.23 -0.779,3.338l-82.771,-21.096Z" style="fill:#e56f6d;fill-rule:nonzero;"/><path d="M133.333,133.333l82.879,20.663c-0.276,1.11 -0.575,2.214 -0.896,3.312l-81.983,-23.975Z" style="fill:#e46e6c;fill-rule:nonzero;"/><path d="M133.333,133.333l82.108,23.546c-0.316,1.098 -0.653,2.19 -1.012,3.275l-81.096,-26.821Z" style="fill:#e46d6b;fill-rule:nonzero;"/><path d="M133.333,133.333l81.238,26.396c-0.353,1.087 -0.728,2.166 -1.125,3.238l-80.112,-29.633Z" style="fill:#e36c6a;fill-rule:nonzero;"/><path d="M133.333,133.333l80.267,29.213c-0.391,1.075 -0.804,2.142 -1.238,3.2l-79.029,-32.412Z" style="fill:#e36b6a;fill-rule:nonzero;"/><path d="M133.333,133.333l79.196,31.996c-0.427,1.06 -0.876,2.112 -1.346,3.154l-77.85,-35.15Z" style="fill:#e26a69;fill-rule:nonzero;"/><path d="M133.333,133.333l78.033,34.742c-0.465,1.044 -0.951,2.079 -1.458,3.104l-76.575,-37.846Z" style="fill:#e26a68;fill-rule:nonzero;"/><path d="M133.333,133.333l76.771,37.446c-0.5,1.027 -1.021,2.044 -1.562,3.05l-75.208,-40.496Z" style="fill:#e16967;fill-rule:nonzero;"/><path d="M133.333,133.333l75.417,40.1c-0.535,1.01 -1.091,2.008 -1.667,2.996l-73.75,-43.096Z" style="fill:#e16866;fill-rule:nonzero;"/><path d="M133.333,133.333l73.975,42.708c-0.572,0.99 -1.164,1.968 -1.775,2.933l-72.2,-45.642Z" style="fill:#e06765;fill-rule:nonzero;"/><path d="M133.333,133.333l72.438,45.262c-0.606,0.969 -1.231,1.927 -1.875,2.871l-70.563,-48.133Z" style="fill:#df6664;fill-rule:nonzero;"/><path d="M133.333,133.333l70.812,47.763c-0.638,0.948 -1.295,1.883 -1.971,2.804l-68.842,-50.567Z" style="fill:#df6564;fill-rule:nonzero;"/><path d="M133.333,133.333l69.104,50.208c-0.672,0.923 -1.362,1.833 -2.071,2.729l-67.033,-52.938Z" style="fill:#de6463;fill-rule:nonzero;"/><path d="M133.333,133.333l67.308,52.588c-0.703,0.9 -1.424,1.787 -2.163,2.658l-65.146,-55.246Z" style="fill:#de6462;fill-rule:nonzero;"/><path d="M133.333,133.333l65.433,54.904c-0.735,0.876 -1.488,1.737 -2.258,2.583l-63.175,-57.487Z" style="fill:#dd6361;fill-rule:nonzero;"/><path d="M133.333,133.333l63.475,57.154c-0.764,0.85 -1.544,1.685 -2.342,2.504l-61.133,-59.658Z" style="fill:#dd6260;fill-rule:nonzero;"/><path d="M133.333,133.333l61.442,59.333c-0.793,0.823 -1.603,1.63 -2.429,2.421l-59.012,-61.754Z" style="fill:#dc615f;fill-rule:nonzero;"/><path d="M133.333,133.333l59.333,61.442c-0.822,0.795 -1.659,1.572 -2.513,2.333l-56.821,-63.775Z" style="fill:#dc605e;fill-rule:nonzero;"/><path d="M133.333,133.333l57.154,63.475c-0.849,0.766 -1.713,1.515 -2.592,2.246l-54.562,-65.721Z" style="fill:#db5f5e;fill-rule:nonzero;"/><path d="M133.333,133.333l54.904,65.433c-0.876,0.734 -1.766,1.451 -2.671,2.15l-52.233,-67.583Z" style="fill:#db5e5d;fill-rule:nonzero;"/><path d="M133.333,133.333l52.588,67.308c-0.9,0.704 -1.814,1.391 -2.742,2.058l-49.846,-69.367Z" style="fill:#da5d5c;fill-rule:nonzero;"/><path d="M133.333,133.333l50.208,69.104c-0.926,0.672 -1.865,1.324 -2.817,1.958l-47.392,-71.062Z" style="fill:#da5d5b;fill-rule:nonzero;"/><path d="M133.333,133.333l47.763,70.812c-0.947,0.64 -1.907,1.261 -2.879,1.862l-44.883,-72.675Z" style="fill:#d95c5a;fill-rule:nonzero;"/><path d="M133.333,133.333l45.262,72.438c-0.969,0.606 -1.949,1.192 -2.942,1.758l-42.321,-74.196Z" style="fill:#d95b59;fill-rule:nonzero;"/><path d="M133.333,133.333l42.708,73.975c-0.99,0.571 -1.992,1.123 -3.004,1.654l-39.704,-75.629Z" style="fill:#d85a59;fill-rule:nonzero;"/><path d="M133.333,133.333l40.1,75.417c-1.009,0.537 -2.029,1.054 -3.058,1.55l-37.042,-76.967Z" style="fill:#d75958;fill-rule:nonzero;"/><path d="M133.333,133.333l37.446,76.771c-1.028,0.501 -2.065,0.982 -3.113,1.442l-34.333,-78.213Z" style="fill:#d75857;fill-rule:nonzero;"/><path d="M133.333,133.333l34.742,78.033c-1.044,0.464 -2.097,0.907 -3.158,1.329l-31.583,-79.362Z" style="fill:#d65756;fill-rule:nonzero;"/><path d="M133.333,133.333l31.996,79.196c-1.06,0.428 -2.128,0.835 -3.204,1.221l-28.792,-80.417Z" style="fill:#d65755;fill-rule:nonzero;"/><path d="M133.333,133.333l29.213,80.267c-1.073,0.391 -2.154,0.761 -3.242,1.108l-25.971,-81.375Z" style="fill:#d55654;fill-rule:nonzero;"/><path d="M133.333,133.333l26.396,81.238c-1.088,0.352 -2.182,0.683 -3.283,0.992l-23.112,-82.229Z" style="fill:#d55553;fill-rule:nonzero;"/><path d="M133.333,133.333l23.546,82.108c-1.1,0.315 -2.205,0.608 -3.317,0.879l-20.229,-82.988Z" style="fill:#d45453;fill-rule:nonzero;"/><path d="M133.333,133.333l20.663,82.879c-1.109,0.276 -2.223,0.531 -3.342,0.763l-17.321,-83.642Z" style="fill:#d45352;fill-rule:nonzero;"/><path d="M133.333,133.333l17.758,83.55c-1.118,0.238 -2.24,0.453 -3.367,0.646l-14.392,-84.196Z" style="fill:#d35251;fill-rule:nonzero;"/><path d="M133.333,133.333l14.833,84.121c-1.126,0.198 -2.255,0.373 -3.388,0.525l-11.446,-84.646Z" style="fill:#d35150;fill-rule:nonzero;"/><path d="M133.333,133.333l11.888,84.583c-1.132,0.16 -2.267,0.298 -3.404,0.413l-8.483,-84.996Z" style="fill:#d2504f;fill-rule:nonzero;"/><path d="M133.333,133.333l8.929,84.95c-1.137,0.119 -2.276,0.215 -3.417,0.288l-5.513,-85.238Z" style="fill:#d2504e;fill-rule:nonzero;"/><path d="M133.333,133.333l5.958,85.208c-1.14,0.08 -2.282,0.137 -3.425,0.171l-2.533,-85.379Z" style="fill:#d14f4d;fill-rule:nonzero;"/><path d="M133.333,133.333l2.979,85.367c-1.141,0.04 -2.283,0.056 -3.425,0.05l0.446,-85.417Z" style="fill:#d14e4d;fill-rule:nonzero;"/><path d="M133.333,133.333l0,85.417c-1.143,-0.001 -2.287,-0.024 -3.429,-0.071l3.429,-85.346Z" style="fill:#d04d4c;fill-rule:nonzero;"/><path d="M133.333,133.333l-2.979,85.367c-1.143,-0.041 -2.285,-0.105 -3.425,-0.192l6.404,-85.175Z" style="fill:#cf4c4b;fill-rule:nonzero;"/><path d="M133.333,133.333l-5.958,85.208c-1.141,-0.08 -2.28,-0.183 -3.417,-0.308l9.375,-84.9Z" style="fill:#cf4b4a;fill-rule:nonzero;"/><path d="M133.333,133.333l-8.929,84.95c-1.136,-0.12 -2.27,-0.263 -3.4,-0.429l12.329,-84.521Z" style="fill:#ce4a49;fill-rule:nonzero;"/><path d="M133.333,133.333l-11.888,84.583c-1.131,-0.158 -2.259,-0.339 -3.383,-0.542l15.271,-84.042Z" style="fill:#ce4a48;fill-rule:nonzero;"/><path d="M133.333,133.333l-14.833,84.121c-1.125,-0.2 -2.246,-0.422 -3.362,-0.667l18.196,-83.454Z" style="fill:#cd4948;fill-rule:nonzero;"/><path d="M133.333,133.333l-17.758,83.55c-1.118,-0.237 -2.23,-0.497 -3.337,-0.779l21.096,-82.771Z" style="fill:#cd4847;fill-rule:nonzero;"/><path d="M133.333,133.333l-20.662,82.879c-1.11,-0.276 -2.214,-0.575 -3.312,-0.896l23.975,-81.983Z" style="fill:#cc4746;fill-rule:nonzero;"/><path d="M133.333,133.333l-23.546,82.108c-1.098,-0.316 -2.19,-0.653 -3.275,-1.013l26.821,-81.096Z" style="fill:#cc4645;fill-rule:nonzero;"/><path d="M133.333,133.333l-26.396,81.238c-1.087,-0.353 -2.166,-0.728 -3.237,-1.125l29.633,-80.112Z" style="fill:#cb4544;fill-rule:nonzero;"/><path d="M133.333,133.333l-29.213,80.267c-1.075,-0.391 -2.142,-0.804 -3.2,-1.238l32.413,-79.029Z" style="fill:#cb4443;fill-rule:nonzero;"/><path d="M133.333,133.333l-31.996,79.196c-1.06,-0.427 -2.112,-0.876 -3.154,-1.346l35.15,-77.85Z" style="fill:#ca4342;fill-rule:nonzero;"/><path d="M133.333,133.333l-34.742,78.033c-1.044,-0.465 -2.079,-0.951 -3.104,-1.458l37.846,-76.575Z" style="fill:#ca4342;fill-rule:nonzero;"/><path d="M133.333,133.333l-37.446,76.771c-1.027,-0.5 -2.044,-1.021 -3.05,-1.562l40.496,-75.208Z" style="fill:#c94241;fill-rule:nonzero;"/><path d="M133.333,133.333l-40.1,75.417c-1.01,-0.535 -2.008,-1.091 -2.996,-1.667l43.096,-73.75Z" style="fill:#c94140;fill-rule:nonzero;"/></g></g><defs><radialGradient id="_Radial1" cx="0" cy="0" r="1" gradientUnits="userSpaceOnUse" gradientTransform="matrix(125,0,0,125,133.333333,133.333333)"><stop offset="0" style="stop-color:#c8403f;stop-opacity:0.45"/><stop offset="0.5" style="stop-color:#c8403f;stop-opacity:0.45"/><stop offset="1" style="stop-color:#c8403f;stop-opacity:0"/></radialGradient></defs></svg>