<svg width="118" height="113" viewBox="0 0 118 113" fill="none" xmlns="http://www.w3.org/2000/svg" xmlns:xlink="http://www.w3.org/1999/xlink">
<path d="M0 10C0 4.47715 4.47715 0 10 0H108C113.523 0 118 4.47715 118 10V103C118 108.523 113.523 113 108 113H10C4.47715 113 0 108.523 0 103V10Z" fill="#070707"></path>
<path d="M0 10C0 4.47715 4.47715 0 10 0H108C113.523 0 118 4.47715 118 10V103C118 108.523 113.523 113 108 113H10C4.47715 113 0 108.523 0 103V10Z" fill="#070707"></path>
<rect x="33" y="31" width="52" height="52" fill="url(#pattern0_10_56)"></rect>
<defs>
<pattern id="pattern0_10_56" patternContentUnits="objectBoundingBox" width="1" height="1">
<use xlink:href="#image0_10_56" transform="scale(0.00195312)"></use>
</pattern>
<image id="image0_10_56" width="512" height="512"></image>
</defs>
</svg>