<svg width="44" height="44" viewBox="0 0 44 44" fill="none" xmlns="http://www.w3.org/2000/svg">
<g clip-path="url(#clip0_106_7)">
<g filter="url(#filter0_d_106_7)">
<path d="M34 1H10C5.58172 1 2 4.58172 2 9V33C2 37.4183 5.58172 41 10 41H34C38.4183 41 42 37.4183 42 33V9C42 4.58172 38.4183 1 34 1Z" fill="#191928"/>
<path d="M34 1.5H10C5.85786 1.5 2.5 4.85786 2.5 9V33C2.5 37.1421 5.85786 40.5 10 40.5H34C38.1421 40.5 41.5 37.1421 41.5 33V9C41.5 4.85786 38.1421 1.5 34 1.5Z" stroke="#2F3237"/>
<rect x="11" y="11" width="21" height="20" rx="2" fill="white"/>
<path d="M26 21L20 24.4641V17.5359L26 21Z" fill="#191928"/>
</g>
</g>
<defs>
<filter id="filter0_d_106_7" x="0" y="0" width="44" height="44" filterUnits="userSpaceOnUse" color-interpolation-filters="sRGB">
<feFlood flood-opacity="0" result="BackgroundImageFix"/>
<feColorMatrix in="SourceAlpha" type="matrix" values="0 0 0 0 0 0 0 0 0 0 0 0 0 0 0 0 0 0 127 0" result="hardAlpha"/>
<feOffset dy="1"/>
<feGaussianBlur stdDeviation="1"/>
<feColorMatrix type="matrix" values="0 0 0 0 0.0627451 0 0 0 0 0.0941176 0 0 0 0 0.156863 0 0 0 0.05 0"/>
<feBlend mode="normal" in2="BackgroundImageFix" result="effect1_dropShadow_106_7"/>
<feBlend mode="normal" in="SourceGraphic" in2="effect1_dropShadow_106_7" result="shape"/>
</filter>
<clipPath id="clip0_106_7">
<rect width="44" height="44" fill="white"/>
</clipPath>
</defs>
</svg>
